<svg xmlns="http://www.w3.org/2000/svg" width="1024" height="1024" viewBox="0 0 1024 1024"><defs>
    <linearGradient id="bgGrad" x1="0" y1="0" x2="0" y2="1"><stop offset="0" stop-color="#F4EEE2"></stop><stop offset="1" stop-color="#E7DCC9"></stop></linearGradient>
    <radialGradient id="glowH" cx="0.82" cy="0.08" r="0.8"><stop offset="0" stop-color="#FFAA55" stop-opacity="0.30"></stop><stop offset="1" stop-color="#FFAA55" stop-opacity="0"></stop></radialGradient></defs>  <g id="background"><rect width="1024" height="1024" fill="url(#bgGrad)"></rect><g stroke="#FFFFFF" stroke-opacity="0.03" stroke-width="2"><line x1="128" y1="0" x2="128" y2="1024"></line><line x1="256" y1="0" x2="256" y2="1024"></line><line x1="384" y1="0" x2="384" y2="1024"></line><line x1="512" y1="0" x2="512" y2="1024"></line><line x1="640" y1="0" x2="640" y2="1024"></line><line x1="768" y1="0" x2="768" y2="1024"></line><line x1="896" y1="0" x2="896" y2="1024"></line><line x1="0" y1="128" x2="1024" y2="128"></line><line x1="0" y1="256" x2="1024" y2="256"></line><line x1="0" y1="384" x2="1024" y2="384"></line><line x1="0" y1="512" x2="1024" y2="512"></line><line x1="0" y1="640" x2="1024" y2="640"></line><line x1="0" y1="768" x2="1024" y2="768"></line><line x1="0" y1="896" x2="1024" y2="896"></line></g><rect width="1024" height="1024" fill="url(#glowH)"></rect></g></svg>